<svg xmlns="http://www.w3.org/2000/svg" version="1.1" xmlns:xlink="http://www.w3.org/1999/xlink" xmlns:svgjs="http://svgjs.dev/svgjs" width="2000" height="878" viewBox="0 0 2000 878"><g transform="matrix(1,0,0,1,-1.2112696095522324,-0.7567058343503277)"><svg viewBox="0 0 396 174" data-background-color="#ffffff" preserveAspectRatio="xMidYMid meet" height="878" width="2000" xmlns="http://www.w3.org/2000/svg" xmlns:xlink="http://www.w3.org/1999/xlink"><g id="tight-bounds" transform="matrix(1,0,0,1,0.24008861730862918,0.14996220407398653)"><svg viewBox="0 0 395.52 173.70007559185203" height="173.70007559185203" width="395.52"><g><svg viewBox="0 0 395.52 173.70007559185203" height="173.70007559185203" width="395.52"><g><svg viewBox="0 0 395.52 173.70007559185203" height="173.70007559185203" width="395.52"><g id="textblocktransform"><svg viewBox="0 0 395.52 173.70007559185203" height="173.70007559185203" width="395.52" id="textblock"><g><svg viewBox="0 0 395.52 173.70007559185203" height="173.70007559185203" width="395.52"><path d="M394.594 37.255C392.735 19.225 387.435 14.213 387.435 14.213 371.165-4.358 350.86-0.355 332.619 2.313 300.414 2.421 268.339 6.388 236.208 8.516 168.767 8.84 100.749 3.503 33.643 16.665 27.339 20.704-6.54 17.458 1.121 39.563 3.129 48.758 10.456 58.963 10.232 67.402 11.236 68.88 12.631 65.49 13.226 67.618 15.309 73.351 18.711 70.647 21.501 74.037 17.614 83.088 20.403 90.624 23.062 98.521 18.377 100.577 12.371 99.603 9.675 106.418 9.396 111.359 7.89 110.421 6.235 110.205 5.026 110.061 2.59 110.601 2.999 112.152 4.394 117.453-1.594 120.518 2.162 125.711-0.422 131.336 3.948 136.204 3.353 142.298 3.278 143.524 3.687 144.57 4.338 144.858 7.22 146.409 3.018 149.438 3.464 152.72 33.029 175.149 65.104 159.643 95.394 169.956 103.259 162.744 97.346 172.516 100.489 171.002 102.943 169.235 104.728 176.555 107.499 172.408 107.927 171.218 107.276 168.406 108.8 168.947 109.6 169.235 110.307 169.163 110.418 167.504 110.586 165.016 109.117 166.567 108.726 165.268 112.947 158.705 111.906 174.319 115.866 173.67 115.68 171.759 114.528 169.019 116.889 169.379 119.232 166.639 119.306 164.367 121.389 170.533 121.463 171.867 121.835 172.805 122.43 173.454 128.938 166.747 135.409 175.834 142.233 172.805 146.417 169.487 150.433 174.608 154.672 173.346 156.16 172.336 157.666 170.533 159.098 173.562 176.632 174.211 195.319 171.507 211.943 173.67 256.364 169.632 303.836 175.329 350.674 169.992 361.719 167.937 373.192 165.016 383.958 162.672 383.958 162.672 392.679 156.253 392.679 127.405S394.538 102.163 394.817 79.193C395.096 56.223 396.398 55.285 394.538 37.255Z" opacity="1" fill="#b81d33" data-fill-palette-color="tertiary"></path><g transform="matrix(1,0,0,1,55.76832,26.230666666666668)"><svg width="283.98335999999995" viewBox="3.49 -37.01 86.69000000000001 37.01" height="121.2387422585187" data-palette-color="#ffffff"><path d="M3.49 0L3.49-4.2 7.01-4.2 7.01-32.35 3.49-32.35 3.49-37.01 15.21-37.01 26.95-5.05 38.84-37.01 49.95-37.01 49.95-32.35 46.46-32.35 46.46-4.2 49.95-4.2 49.95 0 37.94 0 37.94-4.2 41.89-4.2 41.89-32.62 28.96 0 24.8 0 11.69-32.69 11.69-4.2 15.5-4.2 15.5 0 3.49 0ZM78.17-32.79L78.17-37.01 90.18-37.01 90.18-32.79 86.98-32.79 75 0 68.28 0 56.47-32.79 53.2-32.79 53.2-37.01 65.21-37.01 65.21-32.79 61.98-32.79 71.48-4.25 81.66-32.79 78.17-32.79Z" opacity="1" transform="matrix(1,0,0,1,0,0)" fill="#ffffff" class="wordmark-text-0" data-fill-palette-color="quaternary" id="text-0"></path></svg></g></svg></g></svg></g></svg></g><g></g></svg></g><defs></defs></svg><rect width="395.52" height="173.70007559185203" fill="none" stroke="none" visibility="hidden"></rect></g></svg></g></svg>